G04 Layer_Color=32896*
%FSLAX43Y43*%
%MOMM*%
G71*
G01*
G75*
%ADD10C,0.254*%
D10*
X81839Y84099D02*
X82855D01*
Y83337D01*
X82347D01*
X82855D01*
Y82575D01*
X80316Y84099D02*
X81331D01*
Y82575D01*
X80316D01*
X81331Y83337D02*
X80823D01*
X79808Y82575D02*
Y84099D01*
X79046D01*
X78792Y83845D01*
Y83337D01*
X79046Y83083D01*
X79808D01*
X79300D02*
X78792Y82575D01*
X77523D02*
Y84099D01*
X78284Y83337D01*
X77269D01*
X69139Y101117D02*
X70155D01*
Y100355D01*
X69647D01*
X70155D01*
Y99593D01*
X67616Y101117D02*
X68631D01*
Y99593D01*
X67616D01*
X68631Y100355D02*
X68123D01*
X67108Y99593D02*
Y101117D01*
X66346D01*
X66092Y100863D01*
Y100355D01*
X66346Y100101D01*
X67108D01*
X66600D02*
X66092Y99593D01*
X65584D02*
X65076D01*
X65330D01*
Y101117D01*
X65584Y100863D01*
X70714Y77038D02*
Y78054D01*
X70968Y78308D01*
X71476D01*
X71730Y78054D01*
Y77038D01*
X71476Y76784D01*
X70968D01*
X71222Y77292D02*
X70714Y76784D01*
X70968D02*
X70714Y77038D01*
X69190Y76784D02*
X70206D01*
X69190Y77800D01*
Y78054D01*
X69444Y78308D01*
X69952D01*
X70206Y78054D01*
X60427Y85674D02*
Y86690D01*
X60681Y86944D01*
X61189D01*
X61443Y86690D01*
Y85674D01*
X61189Y85420D01*
X60681D01*
X60935Y85928D02*
X60427Y85420D01*
X60681D02*
X60427Y85674D01*
X59157Y85420D02*
Y86944D01*
X59919Y86182D01*
X58903D01*
X60935Y76276D02*
Y77292D01*
X61189Y77546D01*
X61697D01*
X61951Y77292D01*
Y76276D01*
X61697Y76022D01*
X61189D01*
X61443Y76530D02*
X60935Y76022D01*
X61189D02*
X60935Y76276D01*
X59411Y77546D02*
X60427D01*
Y76784D01*
X59919Y77038D01*
X59665D01*
X59411Y76784D01*
Y76276D01*
X59665Y76022D01*
X60173D01*
X60427Y76276D01*
X93447Y62306D02*
Y63322D01*
X93701Y63576D01*
X94209D01*
X94463Y63322D01*
Y62306D01*
X94209Y62052D01*
X93701D01*
X93955Y62560D02*
X93447Y62052D01*
X93701D02*
X93447Y62306D01*
X92939Y63576D02*
X91923D01*
Y63322D01*
X92939Y62306D01*
Y62052D01*
X67793Y64135D02*
Y65659D01*
X67031D01*
X66777Y65405D01*
Y64897D01*
X67031Y64643D01*
X67793D01*
X67285D02*
X66777Y64135D01*
X66269Y65405D02*
X66015Y65659D01*
X65507D01*
X65253Y65405D01*
Y65151D01*
X65507Y64897D01*
X65761D01*
X65507D01*
X65253Y64643D01*
Y64389D01*
X65507Y64135D01*
X66015D01*
X66269Y64389D01*
X68174Y68834D02*
Y70358D01*
X67412D01*
X67158Y70104D01*
Y69596D01*
X67412Y69342D01*
X68174D01*
X67666D02*
X67158Y68834D01*
X65634Y70358D02*
X66142Y70104D01*
X66650Y69596D01*
Y69088D01*
X66396Y68834D01*
X65888D01*
X65634Y69088D01*
Y69342D01*
X65888Y69596D01*
X66650D01*
X102387Y66040D02*
Y67564D01*
X101626D01*
X101372Y67310D01*
Y66802D01*
X101626Y66548D01*
X102387D01*
X101880D02*
X101372Y66040D01*
X100864Y67564D02*
X99848D01*
Y67310D01*
X100864Y66294D01*
Y66040D01*
X106959D02*
Y67564D01*
X106198D01*
X105944Y67310D01*
Y66802D01*
X106198Y66548D01*
X106959D01*
X106452D02*
X105944Y66040D01*
X105436Y67310D02*
X105182Y67564D01*
X104674D01*
X104420Y67310D01*
Y67056D01*
X104674Y66802D01*
X104420Y66548D01*
Y66294D01*
X104674Y66040D01*
X105182D01*
X105436Y66294D01*
Y66548D01*
X105182Y66802D01*
X105436Y67056D01*
Y67310D01*
X105182Y66802D02*
X104674D01*
X66700Y75463D02*
Y76987D01*
X65939D01*
X65685Y76733D01*
Y76225D01*
X65939Y75971D01*
X66700D01*
X66193D02*
X65685Y75463D01*
X65177Y75717D02*
X64923Y75463D01*
X64415D01*
X64161Y75717D01*
Y76733D01*
X64415Y76987D01*
X64923D01*
X65177Y76733D01*
Y76479D01*
X64923Y76225D01*
X64161D01*
X71272Y80772D02*
Y82296D01*
X70511D01*
X70257Y82042D01*
Y81534D01*
X70511Y81280D01*
X71272D01*
X70765D02*
X70257Y80772D01*
X69749D02*
X69241D01*
X69495D01*
Y82296D01*
X69749Y82042D01*
X68479D02*
X68225Y82296D01*
X67718D01*
X67464Y82042D01*
Y81026D01*
X67718Y80772D01*
X68225D01*
X68479Y81026D01*
Y82042D01*
M02*
