G04 Layer_Color=32896*
%FSLAX43Y43*%
%MOMM*%
G71*
G01*
G75*
%ADD18C,0.200*%
%ADD19C,0.100*%
D18*
X94126Y57836D02*
G03*
X94526Y58236I0J400D01*
G01*
X92926D02*
G03*
X93326Y57836I400J0D01*
G01*
X93326Y61036D02*
G03*
X92926Y60636I0J-400D01*
G01*
X94526D02*
G03*
X94126Y61036I-400J0D01*
G01*
X61614Y71806D02*
G03*
X62014Y72206I0J400D01*
G01*
X60414D02*
G03*
X60814Y71806I400J0D01*
G01*
X60814Y75006D02*
G03*
X60414Y74606I0J-400D01*
G01*
X62014D02*
G03*
X61614Y75006I-400J0D01*
G01*
X61106Y81204D02*
G03*
X61506Y81604I0J400D01*
G01*
X59906D02*
G03*
X60306Y81204I400J0D01*
G01*
X60306Y84404D02*
G03*
X59906Y84004I0J-400D01*
G01*
X61506D02*
G03*
X61106Y84404I-400J0D01*
G01*
X71393Y72568D02*
G03*
X71793Y72968I0J400D01*
G01*
X70193D02*
G03*
X70593Y72568I400J0D01*
G01*
X70593Y75768D02*
G03*
X70193Y75368I0J-400D01*
G01*
X71793D02*
G03*
X71393Y75768I-400J0D01*
G01*
X77510Y73724D02*
X82510D01*
X77510D02*
Y81724D01*
X82510D01*
Y73724D02*
Y81724D01*
X94526Y58236D02*
Y60636D01*
X92926Y58236D02*
Y60636D01*
X93326Y61036D02*
X94126Y61036D01*
X93326Y57836D02*
X94126D01*
X62014Y72206D02*
Y74606D01*
X60414Y72206D02*
Y74606D01*
X60814Y75006D02*
X61614Y75006D01*
X60814Y71806D02*
X61614D01*
X61506Y81604D02*
Y84004D01*
X59906Y81604D02*
Y84004D01*
X60306Y84404D02*
X61106Y84404D01*
X60306Y81204D02*
X61106D01*
X64810Y90742D02*
X69810D01*
X64810D02*
Y98742D01*
X69810D01*
Y90742D02*
Y98742D01*
X66294Y73279D02*
Y74295D01*
X66802Y73279D02*
Y74295D01*
X66294Y73279D02*
X66802D01*
X66294Y74295D02*
X66802D01*
X70866Y78613D02*
Y79629D01*
X71374Y78613D02*
Y79629D01*
X70866Y78613D02*
X71374D01*
X70866Y79629D02*
X71374D01*
X67343Y65825D02*
X68293D01*
X67343D02*
Y67525D01*
X68293D01*
Y65825D02*
Y67525D01*
X66962Y61126D02*
X67912D01*
X66962D02*
Y62826D01*
X67912D01*
Y61126D02*
Y62826D01*
X71793Y72968D02*
Y75368D01*
X70193Y72968D02*
Y75368D01*
X70593Y75768D02*
X71393Y75768D01*
X70593Y72568D02*
X71393D01*
X101981Y63881D02*
Y64897D01*
X102489Y63881D02*
Y64897D01*
X101981Y63881D02*
X102489D01*
X101981Y64897D02*
X102489D01*
X106553Y63881D02*
Y64897D01*
X107061Y63881D02*
Y64897D01*
X106553Y63881D02*
X107061D01*
X106553Y64897D02*
X107061D01*
D19*
X80002Y77168D02*
Y76835D01*
X79752D01*
Y77002D01*
Y76835D01*
X79502D01*
X80002Y77668D02*
Y77335D01*
X79502D01*
Y77668D01*
X79752Y77335D02*
Y77501D01*
X79502Y77835D02*
X80002D01*
Y78085D01*
X79919Y78168D01*
X79752D01*
X79669Y78085D01*
Y77835D01*
Y78001D02*
X79502Y78168D01*
Y78584D02*
X80002D01*
X79752Y78335D01*
Y78668D01*
X95079Y59515D02*
X95413D01*
X95496Y59432D01*
Y59265D01*
X95413Y59182D01*
X95079D01*
X94996Y59265D01*
Y59432D01*
X95163Y59349D02*
X94996Y59515D01*
Y59432D02*
X95079Y59515D01*
X95496Y59682D02*
Y60015D01*
X95413D01*
X95079Y59682D01*
X94996D01*
X61043Y73485D02*
X61377D01*
X61460Y73402D01*
Y73235D01*
X61377Y73152D01*
X61043D01*
X60960Y73235D01*
Y73402D01*
X61127Y73319D02*
X60960Y73485D01*
Y73402D02*
X61043Y73485D01*
X61460Y73985D02*
Y73652D01*
X61210D01*
X61293Y73818D01*
Y73902D01*
X61210Y73985D01*
X61043D01*
X60960Y73902D01*
Y73735D01*
X61043Y73652D01*
X60535Y82629D02*
X60869D01*
X60952Y82546D01*
Y82379D01*
X60869Y82296D01*
X60535D01*
X60452Y82379D01*
Y82546D01*
X60619Y82463D02*
X60452Y82629D01*
Y82546D02*
X60535Y82629D01*
X60452Y83046D02*
X60952D01*
X60702Y82796D01*
Y83129D01*
X67429Y94440D02*
Y94107D01*
X67179D01*
Y94274D01*
Y94107D01*
X66929D01*
X67429Y94940D02*
Y94607D01*
X66929D01*
Y94940D01*
X67179Y94607D02*
Y94773D01*
X66929Y95107D02*
X67429D01*
Y95357D01*
X67346Y95440D01*
X67179D01*
X67096Y95357D01*
Y95107D01*
Y95273D02*
X66929Y95440D01*
Y95607D02*
Y95773D01*
Y95690D01*
X67429D01*
X67346Y95607D01*
X65405Y73406D02*
X65905D01*
Y73656D01*
X65822Y73739D01*
X65655D01*
X65572Y73656D01*
Y73406D01*
Y73573D02*
X65405Y73739D01*
X65488Y73906D02*
X65405Y73989D01*
Y74156D01*
X65488Y74239D01*
X65822D01*
X65905Y74156D01*
Y73989D01*
X65822Y73906D01*
X65738D01*
X65655Y73989D01*
Y74239D01*
X71628Y78486D02*
X72128D01*
Y78736D01*
X72045Y78819D01*
X71878D01*
X71795Y78736D01*
Y78486D01*
Y78653D02*
X71628Y78819D01*
Y78986D02*
Y79152D01*
Y79069D01*
X72128D01*
X72045Y78986D01*
Y79402D02*
X72128Y79486D01*
Y79652D01*
X72045Y79736D01*
X71711D01*
X71628Y79652D01*
Y79486D01*
X71711Y79402D01*
X72045D01*
X66548Y66294D02*
X67048D01*
Y66544D01*
X66965Y66627D01*
X66798D01*
X66715Y66544D01*
Y66294D01*
Y66461D02*
X66548Y66627D01*
X67048Y67127D02*
X66965Y66960D01*
X66798Y66794D01*
X66631D01*
X66548Y66877D01*
Y67044D01*
X66631Y67127D01*
X66715D01*
X66798Y67044D01*
Y66794D01*
X68326Y61595D02*
X68826D01*
Y61845D01*
X68743Y61928D01*
X68576D01*
X68493Y61845D01*
Y61595D01*
Y61762D02*
X68326Y61928D01*
X68743Y62095D02*
X68826Y62178D01*
Y62345D01*
X68743Y62428D01*
X68659D01*
X68576Y62345D01*
Y62261D01*
Y62345D01*
X68493Y62428D01*
X68409D01*
X68326Y62345D01*
Y62178D01*
X68409Y62095D01*
X70695Y74120D02*
X71029D01*
X71112Y74037D01*
Y73870D01*
X71029Y73787D01*
X70695D01*
X70612Y73870D01*
Y74037D01*
X70779Y73954D02*
X70612Y74120D01*
Y74037D02*
X70695Y74120D01*
X70612Y74620D02*
Y74287D01*
X70945Y74620D01*
X71029D01*
X71112Y74537D01*
Y74370D01*
X71029Y74287D01*
X102235Y64389D02*
X102735D01*
Y64639D01*
X102652Y64722D01*
X102485D01*
X102402Y64639D01*
Y64389D01*
Y64556D02*
X102235Y64722D01*
X102735Y64889D02*
Y65222D01*
X102652D01*
X102318Y64889D01*
X102235D01*
X106807Y64389D02*
X107307D01*
Y64639D01*
X107224Y64722D01*
X107057D01*
X106974Y64639D01*
Y64389D01*
Y64556D02*
X106807Y64722D01*
X107224Y64889D02*
X107307Y64972D01*
Y65139D01*
X107224Y65222D01*
X107140D01*
X107057Y65139D01*
X106974Y65222D01*
X106890D01*
X106807Y65139D01*
Y64972D01*
X106890Y64889D01*
X106974D01*
X107057Y64972D01*
X107140Y64889D01*
X107224D01*
X107057Y64972D02*
Y65139D01*
M02*
