G04 Layer_Color=32768*
%FSLAX43Y43*%
%MOMM*%
G71*
G01*
G75*
%ADD18C,0.200*%
%ADD19C,0.100*%
D18*
X57790Y81660D02*
G03*
X57790Y81660I-100J0D01*
G01*
X82766Y59379D02*
G03*
X83166Y58979I400J0D01*
G01*
X83966Y58979D02*
G03*
X84366Y59379I-0J400D01*
G01*
Y61779D02*
G03*
X83966Y62179I-400J-0D01*
G01*
X83166Y62179D02*
G03*
X82766Y61779I0J-400D01*
G01*
X83274Y65221D02*
G03*
X83674Y64821I400J0D01*
G01*
X84474Y64821D02*
G03*
X84874Y65221I-0J400D01*
G01*
Y67621D02*
G03*
X84474Y68021I-400J-0D01*
G01*
X83674Y68021D02*
G03*
X83274Y67621I0J-400D01*
G01*
X63081Y66237D02*
G03*
X63481Y65837I400J0D01*
G01*
X64281Y65837D02*
G03*
X64681Y66237I-0J400D01*
G01*
Y68637D02*
G03*
X64281Y69037I-400J-0D01*
G01*
X63481Y69037D02*
G03*
X63081Y68637I0J-400D01*
G01*
X75908Y89097D02*
G03*
X76308Y88697I400J0D01*
G01*
X77108Y88697D02*
G03*
X77508Y89097I-0J400D01*
G01*
Y91497D02*
G03*
X77108Y91897I-400J-0D01*
G01*
X76308Y91897D02*
G03*
X75908Y91497I0J-400D01*
G01*
X66934Y75310D02*
G03*
X66934Y75310I-100J0D01*
G01*
X68331Y89026D02*
G03*
X68331Y89026I-100J0D01*
G01*
X62190Y81312D02*
Y85312D01*
X57190Y81312D02*
Y85312D01*
X62190D01*
X57190Y81280D02*
X62190D01*
X82766Y59379D02*
Y61779D01*
X84366Y59379D02*
Y61779D01*
X83166Y62179D02*
X83966Y62179D01*
X83166Y58979D02*
X83966D01*
X83274Y65221D02*
Y67621D01*
X84874Y65221D02*
Y67621D01*
X83674Y68021D02*
X84474Y68021D01*
X83674Y64821D02*
X84474D01*
X63081Y66237D02*
Y68637D01*
X64681Y66237D02*
Y68637D01*
X63481Y69037D02*
X64281Y69037D01*
X63481Y65837D02*
X64281D01*
X75908Y89097D02*
Y91497D01*
X77508Y89097D02*
Y91497D01*
X76308Y91897D02*
X77108Y91897D01*
X76308Y88697D02*
X77108D01*
X71334Y74962D02*
Y78962D01*
X66334Y74962D02*
Y78962D01*
X71334D01*
X66334Y74930D02*
X71334D01*
X55285Y94552D02*
X60285D01*
Y102552D01*
X55285D02*
X60285D01*
X55285Y94552D02*
Y102552D01*
X86273Y56325D02*
X91273D01*
Y64325D01*
X86273D02*
X91273D01*
X86273Y56325D02*
Y64325D01*
X72731Y88678D02*
Y92678D01*
X67731Y88678D02*
Y92678D01*
X72731D01*
X67731Y88646D02*
X72731D01*
X98044Y59690D02*
Y60706D01*
X97536Y59690D02*
Y60706D01*
Y59690D02*
X98044D01*
X97536Y60706D02*
X98044D01*
X102489Y59690D02*
Y60706D01*
X101981Y59690D02*
Y60706D01*
Y59690D02*
X102489D01*
X101981Y60706D02*
X102489D01*
X67691Y64516D02*
Y65532D01*
X67183Y64516D02*
Y65532D01*
Y64516D02*
X67691D01*
X67183Y65532D02*
X67691D01*
X75471Y72302D02*
X76421D01*
Y74002D01*
X75471D02*
X76421D01*
X75471Y72302D02*
Y74002D01*
X79208Y72102D02*
Y74202D01*
X80558Y72102D02*
Y74202D01*
X79208D02*
X80558D01*
X79208Y72102D02*
X80558D01*
X83526D02*
Y74202D01*
X84876Y72102D02*
Y74202D01*
X83526D02*
X84876D01*
X83526Y72102D02*
X84876D01*
D19*
X75946Y62611D02*
Y63111D01*
X76113Y62944D01*
X76279Y63111D01*
Y62611D01*
X76779Y63111D02*
X76446D01*
Y62611D01*
X76779D01*
X76446Y62861D02*
X76612D01*
X76946Y62611D02*
X77112D01*
X77029D01*
Y63111D01*
X76946Y63028D01*
X83185Y87884D02*
Y88384D01*
X83352Y88217D01*
X83518Y88384D01*
Y87884D01*
X84018Y88384D02*
X83685D01*
Y87884D01*
X84018D01*
X83685Y88134D02*
X83851D01*
X84518Y87884D02*
X84185D01*
X84518Y88217D01*
Y88301D01*
X84435Y88384D01*
X84268D01*
X84185Y88301D01*
X59190Y82804D02*
Y82971D01*
Y82887D01*
X59690D01*
Y82804D01*
Y82971D01*
X59273Y83554D02*
X59190Y83470D01*
Y83304D01*
X59273Y83221D01*
X59607D01*
X59690Y83304D01*
Y83470D01*
X59607Y83554D01*
X59690Y84054D02*
Y83720D01*
X59357Y84054D01*
X59273D01*
X59190Y83970D01*
Y83804D01*
X59273Y83720D01*
X82086Y60785D02*
X81752D01*
X81669Y60702D01*
Y60535D01*
X81752Y60452D01*
X82086D01*
X82169Y60535D01*
Y60702D01*
X82002Y60619D02*
X82169Y60785D01*
Y60702D02*
X82086Y60785D01*
X82169Y60952D02*
Y61118D01*
Y61035D01*
X81669D01*
X81752Y60952D01*
X82721Y66500D02*
X82387D01*
X82304Y66417D01*
Y66250D01*
X82387Y66167D01*
X82721D01*
X82804Y66250D01*
Y66417D01*
X82637Y66334D02*
X82804Y66500D01*
Y66417D02*
X82721Y66500D01*
X82304Y67000D02*
X82387Y66833D01*
X82554Y66667D01*
X82721D01*
X82804Y66750D01*
Y66917D01*
X82721Y67000D01*
X82637D01*
X82554Y66917D01*
Y66667D01*
X65449Y67262D02*
X65115D01*
X65032Y67179D01*
Y67012D01*
X65115Y66929D01*
X65449D01*
X65532Y67012D01*
Y67179D01*
X65365Y67096D02*
X65532Y67262D01*
Y67179D02*
X65449Y67262D01*
X65115Y67429D02*
X65032Y67512D01*
Y67679D01*
X65115Y67762D01*
X65199D01*
X65282Y67679D01*
X65365Y67762D01*
X65449D01*
X65532Y67679D01*
Y67512D01*
X65449Y67429D01*
X65365D01*
X65282Y67512D01*
X65199Y67429D01*
X65115D01*
X65282Y67512D02*
Y67679D01*
X76879Y90249D02*
X76545D01*
X76462Y90166D01*
Y89999D01*
X76545Y89916D01*
X76879D01*
X76962Y89999D01*
Y90166D01*
X76795Y90083D02*
X76962Y90249D01*
Y90166D02*
X76879Y90249D01*
X76545Y90416D02*
X76462Y90499D01*
Y90666D01*
X76545Y90749D01*
X76629D01*
X76712Y90666D01*
Y90582D01*
Y90666D01*
X76795Y90749D01*
X76879D01*
X76962Y90666D01*
Y90499D01*
X76879Y90416D01*
X68334Y76454D02*
Y76621D01*
Y76537D01*
X68834D01*
Y76454D01*
Y76621D01*
X68417Y77204D02*
X68334Y77120D01*
Y76954D01*
X68417Y76871D01*
X68751D01*
X68834Y76954D01*
Y77120D01*
X68751Y77204D01*
X68417Y77370D02*
X68334Y77454D01*
Y77620D01*
X68417Y77704D01*
X68501D01*
X68584Y77620D01*
Y77537D01*
Y77620D01*
X68667Y77704D01*
X68751D01*
X68834Y77620D01*
Y77454D01*
X68751Y77370D01*
X57412Y97742D02*
Y97409D01*
X57662D01*
Y97576D01*
Y97409D01*
X57912D01*
X57412Y98242D02*
Y97909D01*
X57912D01*
Y98242D01*
X57662Y97909D02*
Y98075D01*
X57912Y98409D02*
X57412D01*
Y98659D01*
X57495Y98742D01*
X57662D01*
X57745Y98659D01*
Y98409D01*
Y98575D02*
X57912Y98742D01*
X57495Y98909D02*
X57412Y98992D01*
Y99158D01*
X57495Y99242D01*
X57579D01*
X57662Y99158D01*
Y99075D01*
Y99158D01*
X57745Y99242D01*
X57829D01*
X57912Y99158D01*
Y98992D01*
X57829Y98909D01*
X88273Y59769D02*
Y59436D01*
X88523D01*
Y59603D01*
Y59436D01*
X88773D01*
X88273Y60269D02*
Y59936D01*
X88773D01*
Y60269D01*
X88523Y59936D02*
Y60102D01*
X88773Y60436D02*
X88273D01*
Y60686D01*
X88356Y60769D01*
X88523D01*
X88606Y60686D01*
Y60436D01*
Y60602D02*
X88773Y60769D01*
Y61269D02*
Y60936D01*
X88440Y61269D01*
X88356D01*
X88273Y61185D01*
Y61019D01*
X88356Y60936D01*
X70112Y90043D02*
Y90210D01*
Y90126D01*
X70612D01*
Y90043D01*
Y90210D01*
X70195Y90793D02*
X70112Y90709D01*
Y90543D01*
X70195Y90460D01*
X70529D01*
X70612Y90543D01*
Y90709D01*
X70529Y90793D01*
X70612Y90959D02*
Y91126D01*
Y91043D01*
X70112D01*
X70195Y90959D01*
X97028Y59944D02*
X96528D01*
Y60194D01*
X96611Y60277D01*
X96778D01*
X96861Y60194D01*
Y59944D01*
Y60111D02*
X97028Y60277D01*
Y60694D02*
X96528D01*
X96778Y60444D01*
Y60777D01*
X101473Y59944D02*
X100973D01*
Y60194D01*
X101056Y60277D01*
X101223D01*
X101306Y60194D01*
Y59944D01*
Y60111D02*
X101473Y60277D01*
X100973Y60777D02*
Y60444D01*
X101223D01*
X101140Y60610D01*
Y60694D01*
X101223Y60777D01*
X101390D01*
X101473Y60694D01*
Y60527D01*
X101390Y60444D01*
X66675Y64643D02*
X66175D01*
Y64893D01*
X66258Y64976D01*
X66425D01*
X66508Y64893D01*
Y64643D01*
Y64810D02*
X66675Y64976D01*
Y65476D02*
Y65143D01*
X66342Y65476D01*
X66258D01*
X66175Y65393D01*
Y65226D01*
X66258Y65143D01*
X75057Y73025D02*
X74557D01*
Y73275D01*
X74640Y73358D01*
X74807D01*
X74890Y73275D01*
Y73025D01*
Y73192D02*
X75057Y73358D01*
Y73525D02*
Y73691D01*
Y73608D01*
X74557D01*
X74640Y73525D01*
X78367Y72898D02*
X78867D01*
Y73231D01*
Y73731D02*
Y73398D01*
X78534Y73731D01*
X78450D01*
X78367Y73648D01*
Y73481D01*
X78450Y73398D01*
X82431Y73025D02*
X82931D01*
Y73358D01*
Y73525D02*
Y73691D01*
Y73608D01*
X82431D01*
X82514Y73525D01*
M02*
