G04 Layer_Color=65535*
%FSLAX43Y43*%
%MOMM*%
G71*
G01*
G75*
%ADD10C,0.254*%
D10*
X71107Y68466D02*
Y69989D01*
X71615Y69481D01*
X72123Y69989D01*
Y68466D01*
X73646Y69989D02*
X72631D01*
Y68466D01*
X73646D01*
X72631Y69227D02*
X73139D01*
X74154Y68466D02*
X74662D01*
X74408D01*
Y69989D01*
X74154Y69735D01*
X78346Y93739D02*
Y95262D01*
X78854Y94754D01*
X79362Y95262D01*
Y93739D01*
X80885Y95262D02*
X79870D01*
Y93739D01*
X80885D01*
X79870Y94500D02*
X80378D01*
X82409Y93739D02*
X81393D01*
X82409Y94754D01*
Y95008D01*
X82155Y95262D01*
X81647D01*
X81393Y95008D01*
X57353Y89281D02*
X57861D01*
X57607D01*
Y87757D01*
X57353D01*
X57861D01*
X59638Y89027D02*
X59385Y89281D01*
X58877D01*
X58623Y89027D01*
Y88011D01*
X58877Y87757D01*
X59385D01*
X59638Y88011D01*
X61162Y87757D02*
X60146D01*
X61162Y88773D01*
Y89027D01*
X60908Y89281D01*
X60400D01*
X60146Y89027D01*
X83845Y63449D02*
Y64465D01*
X83591Y64719D01*
X83083D01*
X82829Y64465D01*
Y63449D01*
X83083Y63195D01*
X83591D01*
X83337Y63703D02*
X83845Y63195D01*
X83591D02*
X83845Y63449D01*
X84353Y63195D02*
X84861D01*
X84607D01*
Y64719D01*
X84353Y64465D01*
X86931Y66713D02*
X85915D01*
Y65951D01*
X86423D01*
X85915D01*
Y65189D01*
X88455Y66713D02*
X87439D01*
Y65189D01*
X88455D01*
X87439Y65951D02*
X87947D01*
X88963Y65189D02*
Y66713D01*
X89724D01*
X89978Y66459D01*
Y65951D01*
X89724Y65697D01*
X88963D01*
X89470D02*
X89978Y65189D01*
X91502D02*
X90486D01*
X91502Y66205D01*
Y66459D01*
X91248Y66713D01*
X90740D01*
X90486Y66459D01*
X55943Y104940D02*
X54928D01*
Y104178D01*
X55435D01*
X54928D01*
Y103416D01*
X57467Y104940D02*
X56451D01*
Y103416D01*
X57467D01*
X56451Y104178D02*
X56959D01*
X57975Y103416D02*
Y104940D01*
X58736D01*
X58990Y104686D01*
Y104178D01*
X58736Y103924D01*
X57975D01*
X58482D02*
X58990Y103416D01*
X59498Y104686D02*
X59752Y104940D01*
X60260D01*
X60514Y104686D01*
Y104432D01*
X60260Y104178D01*
X60006D01*
X60260D01*
X60514Y103924D01*
Y103670D01*
X60260Y103416D01*
X59752D01*
X59498Y103670D01*
X67882Y96634D02*
X68389D01*
X68135D01*
Y95110D01*
X67882D01*
X68389D01*
X70167Y96380D02*
X69913Y96634D01*
X69405D01*
X69151Y96380D01*
Y95364D01*
X69405Y95110D01*
X69913D01*
X70167Y95364D01*
X70675Y95110D02*
X71182D01*
X70929D01*
Y96634D01*
X70675Y96380D01*
X66484Y82918D02*
X66992D01*
X66738D01*
Y81394D01*
X66484D01*
X66992D01*
X68770Y82664D02*
X68516Y82918D01*
X68008D01*
X67754Y82664D01*
Y81648D01*
X68008Y81394D01*
X68516D01*
X68770Y81648D01*
X69278Y82664D02*
X69532Y82918D01*
X70039D01*
X70293Y82664D01*
Y82410D01*
X70039Y82156D01*
X69785D01*
X70039D01*
X70293Y81902D01*
Y81648D01*
X70039Y81394D01*
X69532D01*
X69278Y81648D01*
X76974Y93154D02*
Y94170D01*
X76720Y94424D01*
X76213D01*
X75959Y94170D01*
Y93154D01*
X76213Y92900D01*
X76720D01*
X76467Y93408D02*
X76974Y92900D01*
X76720D02*
X76974Y93154D01*
X77482Y94170D02*
X77736Y94424D01*
X78244D01*
X78498Y94170D01*
Y93916D01*
X78244Y93662D01*
X77990D01*
X78244D01*
X78498Y93408D01*
Y93154D01*
X78244Y92900D01*
X77736D01*
X77482Y93154D01*
X84340Y69278D02*
Y70294D01*
X84086Y70548D01*
X83579D01*
X83325Y70294D01*
Y69278D01*
X83579Y69024D01*
X84086D01*
X83833Y69532D02*
X84340Y69024D01*
X84086D02*
X84340Y69278D01*
X85864Y70548D02*
X85356Y70294D01*
X84848Y69786D01*
Y69278D01*
X85102Y69024D01*
X85610D01*
X85864Y69278D01*
Y69532D01*
X85610Y69786D01*
X84848D01*
X64147Y70294D02*
Y71310D01*
X63893Y71564D01*
X63386D01*
X63132Y71310D01*
Y70294D01*
X63386Y70040D01*
X63893D01*
X63640Y70548D02*
X64147Y70040D01*
X63893D02*
X64147Y70294D01*
X64655Y71310D02*
X64909Y71564D01*
X65417D01*
X65671Y71310D01*
Y71056D01*
X65417Y70802D01*
X65671Y70548D01*
Y70294D01*
X65417Y70040D01*
X64909D01*
X64655Y70294D01*
Y70548D01*
X64909Y70802D01*
X64655Y71056D01*
Y71310D01*
X64909Y70802D02*
X65417D01*
X83680Y77050D02*
Y75527D01*
X84696D01*
X85204D02*
X85712D01*
X85458D01*
Y77050D01*
X85204Y76796D01*
X79362Y77050D02*
Y75527D01*
X80378D01*
X81901D02*
X80886D01*
X81901Y76543D01*
Y76796D01*
X81648Y77050D01*
X81140D01*
X80886Y76796D01*
X75603Y75324D02*
Y76847D01*
X76365D01*
X76619Y76593D01*
Y76085D01*
X76365Y75832D01*
X75603D01*
X76111D02*
X76619Y75324D01*
X77127D02*
X77634D01*
X77381D01*
Y76847D01*
X77127Y76593D01*
X67297Y66688D02*
Y68211D01*
X68059D01*
X68313Y67957D01*
Y67449D01*
X68059Y67196D01*
X67297D01*
X67805D02*
X68313Y66688D01*
X69836D02*
X68821D01*
X69836Y67703D01*
Y67957D01*
X69583Y68211D01*
X69075D01*
X68821Y67957D01*
X97650Y61862D02*
Y63385D01*
X98412D01*
X98666Y63131D01*
Y62623D01*
X98412Y62370D01*
X97650D01*
X98158D02*
X98666Y61862D01*
X99936D02*
Y63385D01*
X99174Y62623D01*
X100189D01*
X102095Y61862D02*
Y63385D01*
X102857D01*
X103111Y63131D01*
Y62623D01*
X102857Y62370D01*
X102095D01*
X102603D02*
X103111Y61862D01*
X104634Y63385D02*
X103619D01*
Y62623D01*
X104127Y62877D01*
X104381D01*
X104634Y62623D01*
Y62116D01*
X104381Y61862D01*
X103873D01*
X103619Y62116D01*
M02*
